# xmcd
#
# Track frame offsets:
#       150
#       10083
#       18605
#       29447
#       45469
#       57705
#       67028
#       75697
#       88394
#       97817
#       110879
#       123130
#       136404
#       149104
#       163043
#       177049
#       187741
#       197678
#       214764
#       224925
#
# Disc length: 3158 seconds
#
# Revision: 1
# Processed by: cddbd v1.5.1PL2 Copyright (c) Steve Scherf et al.
# Submitted via: MusiCat 1.1
#
DISCID=2e0c5414
DTITLE=Various Artist - 15 yrs (1956-1970) of Great USA #1's
DYEAR=2001
DGENRE=
TTITLE0=The Great Pretender - The Platters
TTITLE1=Honeycombe - Jimmy Rodgers
TTITLE2=Yakety Yak - The Coasters
TTITLE3=Kansas City - Wilbert Harrison
TTITLE4=Save The Last dance For Me - The Platters
TTITLE5=The Lion Sleeps Tonite - The Tokens
TTITLE6=Peppermint Twist - Joey Dee and the Starlighters
TTITLE7=Sugar Shack - Jimmy Gilmer
TTITLE8=My Guy - Mary Wells
TTITLE9=This Diamond Ring - Gary Lewis and the Playboys
TTITLE10=Lightning Strikes - Lou Christie
TTITLE11=Windy - The Association
TTITLE12=Judy In Diguise - John Fred and his Playboy Band
TTITLE13=Sugar Sugar - The Archies
TTITLE14=Tears of A Clown - The Miracles
TTITLE15=Stranger On The Shore - Acker Bilk
TTITLE16=Game Of Love - Wayne Fontana
TTITLE17=Winchester Cathedral - New Vaudeville band
TTITLE18=Love Child - The Supremes
TTITLE19=So Much In Love - Tymes
EXTD=A-Play\n10494-2\n
EXTT0=
EXTT1=
EXTT2=
EXTT3=
EXTT4=
EXTT5=
EXTT6=
EXTT7=
EXTT8=
EXTT9=
EXTT10=
EXTT11=
EXTT12=
EXTT13=
EXTT14=
EXTT15=
EXTT16=
EXTT17=
EXTT18=
EXTT19=
PLAYORDER=
